<svg xmlns="http://www.w3.org/2000/svg" width="1024" height="1024" viewBox="0 0 1024 1024">
  <defs>
    <radialGradient id="bg" cx="50%" cy="38%" r="70%">
      <stop offset="0%" stop-color="#2f281c"/>
      <stop offset="52%" stop-color="#111111"/>
      <stop offset="100%" stop-color="#050505"/>
    </radialGradient>
    <linearGradient id="gold" x1="0" y1="0" x2="1" y2="1">
      <stop offset="0%" stop-color="#fff0a3"/>
      <stop offset="45%" stop-color="#f4bf42"/>
      <stop offset="100%" stop-color="#9b681c"/>
    </linearGradient>
    <filter id="glow" x="-60%" y="-60%" width="220%" height="220%">
      <feGaussianBlur stdDeviation="18" result="blur"/>
      <feColorMatrix in="blur" type="matrix" values="1 0 0 0 0.95 0 0.72 0 0 0.50 0 0 0.18 0 0.04 0 0 0 0.85 0" result="glow"/>
      <feMerge><feMergeNode in="glow"/><feMergeNode in="SourceGraphic"/></feMerge>
    </filter>
  </defs>
  <rect width="1024" height="1024" fill="url(#bg)"/>
  <circle cx="512" cy="512" r="368" fill="none" stroke="#f4bf42" stroke-opacity="0.22" stroke-width="10"/>
  <circle cx="512" cy="512" r="310" fill="none" stroke="#f4bf42" stroke-opacity="0.10" stroke-width="2"/>
  <g filter="url(#glow)">
    <path d="M356 280 h260 q52 0 52 52 v408 q0 22-22 22 H356 q-34 0-34-34 V314 q0-34 34-34z" fill="#17140e" stroke="url(#gold)" stroke-width="20"/>
    <path d="M388 280 v482" stroke="#f4bf42" stroke-width="18" stroke-opacity="0.85"/>
    <path d="M450 390 h150 M450 470 h130 M450 550 h150" stroke="#f4bf42" stroke-width="18" stroke-linecap="round" stroke-opacity="0.78"/>
    <path d="M650 266 l38 82 88 11-64 60 17 87-79-43-78 43 16-87-63-60 88-11z" fill="url(#gold)" opacity="0.94"/>
  </g>
  <text x="512" y="850" text-anchor="middle" font-family="Hiragino Sans, Yu Gothic, sans-serif" font-size="76" font-weight="800" fill="#f4bf42" letter-spacing="4">知恵</text>
</svg>